HIERARCHY
ROOT mixamorig:Hips
{
	OFFSET 0.000000 3.528733 0.000000
	CHANNELS 6 Xposition Yposition Zposition Xrotation Yrotation Zrotation
	JOINT mixamorig:Spine
	{
		OFFSET 0.000000 0.284700 -0.015200
		CHANNELS 3 Xrotation Yrotation Zrotation
		JOINT mixamorig:Spine1
		{
			OFFSET 0.000000 0.332125 -0.017771
			CHANNELS 3 Xrotation Yrotation Zrotation
			JOINT mixamorig:Spine2
			{
				OFFSET 0.000000 0.379557 -0.020309
				CHANNELS 3 Xrotation Yrotation Zrotation
				JOINT mixamorig:Neck
				{
					OFFSET 0.000000 0.426989 -0.022847
					CHANNELS 3 Xrotation Yrotation Zrotation
					JOINT mixamorig:Head
					{
						OFFSET 0.000000 0.288600 0.098000
						CHANNELS 3 Xrotation Yrotation Zrotation
						JOINT mixamorig:HeadTop_End
						{
							OFFSET 0.000000 0.712700 0.242000
							CHANNELS 3 Xrotation Yrotation Zrotation
							End Site
							{
								OFFSET 0.000000 0.752666 0.000000
							}
						}
					}
				}
				JOINT mixamorig:LeftShoulder
				{
					OFFSET 0.202600 0.346984 -0.022672
					CHANNELS 3 Xrotation Yrotation Zrotation
					JOINT mixamorig:LeftArm
					{
						OFFSET 0.427337 -0.109325 0.000307
						CHANNELS 3 Xrotation Yrotation Zrotation
						JOINT mixamorig:LeftForeArm
						{
							OFFSET 0.849600 0.000000 0.000000
							CHANNELS 3 Xrotation Yrotation Zrotation
							JOINT mixamorig:LeftHand
							{
								OFFSET 0.753900 0.000000 0.000000
								CHANNELS 3 Xrotation Yrotation Zrotation
								JOINT mixamorig:LeftHandThumb1
								{
									OFFSET 0.136012 -0.086473 0.045448
									CHANNELS 3 Xrotation Yrotation Zrotation
									JOINT mixamorig:LeftHandThumb2
									{
										OFFSET 0.103772 -0.059913 0.059913
										CHANNELS 3 Xrotation Yrotation Zrotation
										JOINT mixamorig:LeftHandThumb3
										{
											OFFSET 0.095779 -0.055298 0.055298
											CHANNELS 3 Xrotation Yrotation Zrotation
											JOINT mixamorig:LeftHandThumb4
											{
												OFFSET 0.073275 -0.042305 0.042305
												CHANNELS 3 Xrotation Yrotation Zrotation
												End Site
												{
													OFFSET 0.065698 -0.038445 0.056164
												}
											}
										}
									}
								}
								JOINT mixamorig:LeftHandIndex1
								{
									OFFSET 0.449965 -0.020370 0.085418
									CHANNELS 3 Xrotation Yrotation Zrotation
									JOINT mixamorig:LeftHandIndex2
									{
										OFFSET 0.102424 0.000000 -0.000000
										CHANNELS 3 Xrotation Yrotation Zrotation
										JOINT mixamorig:LeftHandIndex3
										{
											OFFSET 0.096306 0.000000 -0.000000
											CHANNELS 3 Xrotation Yrotation Zrotation
											JOINT mixamorig:LeftHandIndex4
											{
												OFFSET 0.078408 0.000000 -0.000000
												CHANNELS 3 Xrotation Yrotation Zrotation
												End Site
												{
													OFFSET 0.078400 -0.000010 -0.001100
												}
											}
										}
									}
								}
								JOINT mixamorig:LeftHandMiddle1
								{
									OFFSET 0.430485 0.000000 0.000000
									CHANNELS 3 Xrotation Yrotation Zrotation
									JOINT mixamorig:LeftHandMiddle2
									{
										OFFSET 0.112203 0.000000 0.000000
										CHANNELS 3 Xrotation Yrotation Zrotation
										JOINT mixamorig:LeftHandMiddle3
										{
											OFFSET 0.108209 0.000000 0.000000
											CHANNELS 3 Xrotation Yrotation Zrotation
											JOINT mixamorig:LeftHandMiddle4
											{
												OFFSET 0.087466 0.000000 0.000000
												CHANNELS 3 Xrotation Yrotation Zrotation
												End Site
												{
													OFFSET 0.087400 -0.000057 -0.003400
												}
											}
										}
									}
								}
								JOINT mixamorig:LeftHandRing1
								{
									OFFSET 0.364574 -0.002440 -0.092011
									CHANNELS 3 Xrotation Yrotation Zrotation
									JOINT mixamorig:LeftHandRing2
									{
										OFFSET 0.114832 0.000000 0.000000
										CHANNELS 3 Xrotation Yrotation Zrotation
										JOINT mixamorig:LeftHandRing3
										{
											OFFSET 0.104409 0.000000 0.000000
											CHANNELS 3 Xrotation Yrotation Zrotation
											JOINT mixamorig:LeftHandRing4
											{
												OFFSET 0.080424 0.000000 0.000000
												CHANNELS 3 Xrotation Yrotation Zrotation
												End Site
												{
													OFFSET 0.080200 -0.000053 -0.006000
												}
											}
										}
									}
								}
								JOINT mixamorig:LeftHandPinky1
								{
									OFFSET 0.312269 -0.016255 -0.171399
									CHANNELS 3 Xrotation Yrotation Zrotation
									JOINT mixamorig:LeftHandPinky2
									{
										OFFSET 0.087028 0.000000 0.000000
										CHANNELS 3 Xrotation Yrotation Zrotation
										JOINT mixamorig:LeftHandPinky3
										{
											OFFSET 0.073733 0.000000 0.000000
											CHANNELS 3 Xrotation Yrotation Zrotation
											JOINT mixamorig:LeftHandPinky4
											{
												OFFSET 0.056250 0.000000 0.000000
												CHANNELS 3 Xrotation Yrotation Zrotation
												End Site
												{
													OFFSET 0.056100 -0.000056 -0.004100
												}
											}
										}
									}
								}
							}
						}
					}
				}
				JOINT mixamorig:RightShoulder
				{
					OFFSET -0.202600 0.346968 -0.022971
					CHANNELS 3 Xrotation Yrotation Zrotation
					JOINT mixamorig:RightArm
					{
						OFFSET -0.427342 -0.109309 -0.000307
						CHANNELS 3 Xrotation Yrotation Zrotation
						JOINT mixamorig:RightForeArm
						{
							OFFSET -0.849600 0.000000 -0.000000
							CHANNELS 3 Xrotation Yrotation Zrotation
							JOINT mixamorig:RightHand
							{
								OFFSET -0.753900 0.000000 -0.000000
								CHANNELS 3 Xrotation Yrotation Zrotation
								JOINT mixamorig:RightHandThumb1
								{
									OFFSET -0.139217 -0.077736 0.046135
									CHANNELS 3 Xrotation Yrotation Zrotation
									JOINT mixamorig:RightHandThumb2
									{
										OFFSET -0.102889 -0.059403 0.059403
										CHANNELS 3 Xrotation Yrotation Zrotation
										JOINT mixamorig:RightHandThumb3
										{
											OFFSET -0.097122 -0.056073 0.056073
											CHANNELS 3 Xrotation Yrotation Zrotation
											JOINT mixamorig:RightHandThumb4
											{
												OFFSET -0.076714 -0.044291 0.044291
												CHANNELS 3 Xrotation Yrotation Zrotation
												End Site
												{
													OFFSET -0.072157 -0.042014 0.053259
												}
											}
										}
									}
								}
								JOINT mixamorig:RightHandIndex1
								{
									OFFSET -0.450325 -0.003448 0.076701
									CHANNELS 3 Xrotation Yrotation Zrotation
									JOINT mixamorig:RightHandIndex2
									{
										OFFSET -0.104343 0.000000 -0.000000
										CHANNELS 3 Xrotation Yrotation Zrotation
										JOINT mixamorig:RightHandIndex3
										{
											OFFSET -0.097003 0.000000 -0.000000
											CHANNELS 3 Xrotation Yrotation Zrotation
											JOINT mixamorig:RightHandIndex4
											{
												OFFSET -0.081630 0.000000 -0.000000
												CHANNELS 3 Xrotation Yrotation Zrotation
												End Site
												{
													OFFSET -0.081600 -0.000082 -0.002198
												}
											}
										}
									}
								}
								JOINT mixamorig:RightHandMiddle1
								{
									OFFSET -0.397234 0.000000 -0.000000
									CHANNELS 3 Xrotation Yrotation Zrotation
									JOINT mixamorig:RightHandMiddle2
									{
										OFFSET -0.115313 0.000000 -0.000000
										CHANNELS 3 Xrotation Yrotation Zrotation
										JOINT mixamorig:RightHandMiddle3
										{
											OFFSET -0.121324 0.000000 -0.000000
											CHANNELS 3 Xrotation Yrotation Zrotation
											JOINT mixamorig:RightHandMiddle4
											{
												OFFSET -0.103502 0.000000 0.000000
												CHANNELS 3 Xrotation Yrotation Zrotation
												End Site
												{
													OFFSET -0.103400 -0.000083 -0.004599
												}
											}
										}
									}
								}
								JOINT mixamorig:RightHandRing1
								{
									OFFSET -0.356229 0.006227 -0.097026
									CHANNELS 3 Xrotation Yrotation Zrotation
									JOINT mixamorig:RightHandRing2
									{
										OFFSET -0.116123 0.000000 0.000000
										CHANNELS 3 Xrotation Yrotation Zrotation
										JOINT mixamorig:RightHandRing3
										{
											OFFSET -0.105608 0.000000 0.000000
											CHANNELS 3 Xrotation Yrotation Zrotation
											JOINT mixamorig:RightHandRing4
											{
												OFFSET -0.089388 0.000000 0.000000
												CHANNELS 3 Xrotation Yrotation Zrotation
												End Site
												{
													OFFSET -0.089200 -0.000198 -0.005797
												}
											}
										}
									}
								}
								JOINT mixamorig:RightHandPinky1
								{
									OFFSET -0.319258 -0.005155 -0.189362
									CHANNELS 3 Xrotation Yrotation Zrotation
									JOINT mixamorig:RightHandPinky2
									{
										OFFSET -0.084919 0.000000 0.000000
										CHANNELS 3 Xrotation Yrotation Zrotation
										JOINT mixamorig:RightHandPinky3
										{
											OFFSET -0.068357 0.000000 0.000000
											CHANNELS 3 Xrotation Yrotation Zrotation
											JOINT mixamorig:RightHandPinky4
											{
												OFFSET -0.053427 0.000000 0.000000
												CHANNELS 3 Xrotation Yrotation Zrotation
												End Site
												{
													OFFSET -0.053400 -0.000117 -0.001696
												}
											}
										}
									}
								}
							}
						}
					}
				}
			}
		}
	}
	JOINT mixamorig:LeftUpLeg
	{
		OFFSET 0.302300 -0.158000 -0.006800
		CHANNELS 3 Xrotation Yrotation Zrotation
		JOINT mixamorig:LeftLeg
		{
			OFFSET -0.021195 -1.512800 -0.072827
			CHANNELS 3 Xrotation Yrotation Zrotation
			JOINT mixamorig:LeftFoot
			{
				OFFSET 0.021196 -1.499076 -0.232845
				CHANNELS 3 Xrotation Yrotation Zrotation
				JOINT mixamorig:LeftToeBase
				{
					OFFSET 0.176214 -0.335644 0.384848
					CHANNELS 3 Xrotation Yrotation Zrotation
					JOINT mixamorig:LeftToe_End
					{
						OFFSET 0.078950 -0.008059 0.195507
						CHANNELS 3 Xrotation Yrotation Zrotation
						End Site
						{
							OFFSET 0.078950 -0.008059 0.195507
						}
					}
				}
			}
		}
	}
	JOINT mixamorig:RightUpLeg
	{
		OFFSET -0.302300 -0.158000 -0.006600
		CHANNELS 3 Xrotation Yrotation Zrotation
		JOINT mixamorig:RightLeg
		{
			OFFSET 0.021196 -1.512831 -0.074247
			CHANNELS 3 Xrotation Yrotation Zrotation
			JOINT mixamorig:RightFoot
			{
				OFFSET -0.021196 -1.499093 -0.231430
				CHANNELS 3 Xrotation Yrotation Zrotation
				JOINT mixamorig:RightToeBase
				{
					OFFSET -0.176206 -0.335620 0.376547
					CHANNELS 3 Xrotation Yrotation Zrotation
					JOINT mixamorig:RightToe_End
					{
						OFFSET -0.078935 -0.008056 0.196268
						CHANNELS 3 Xrotation Yrotation Zrotation
						End Site
						{
							OFFSET -0.078935 -0.008056 0.196268
						}
					}
				}
			}
		}
	}
}
MOTION
Frames: 4
Frame Time: 0.016667
-0.003119 3.188007 0.007028 5.459363 3.127853 -4.174349 4.901217 1.226799 2.559026 9.857120 2.800250 1.722122 9.857125 2.800251 1.722121 -7.496577 -3.144980 -0.434787 -14.101449 -7.360291 -5.253899 0.000000 -0.000000 -0.000000 1.088494 -1.226534 -9.110259 21.951244 16.129946 -69.744626 5.201858 -103.989883 -6.123432 11.818446 -20.243537 2.840516 -3.691976 -7.086347 -6.633073 5.370492 13.667898 2.734580 -0.000007 -0.000004 0.000023 0.000004 0.000000 -0.000003 -4.473773 -5.484382 -78.092053 -6.119757 -4.169246 -86.100811 -0.000009 0.000006 -0.000002 -0.000001 0.000001 -0.000001 -4.806275 -3.745996 -81.576740 -5.132304 -5.371501 -79.877703 0.000000 -0.000005 -0.000005 0.000001 -0.000002 0.000001 -3.655215 4.571932 -85.638838 -3.069024 -4.302895 -82.602949 -0.000009 0.000001 -0.000003 -0.000001 0.000002 0.000001 -3.272601 10.937554 -91.302670 -1.692313 -6.213564 -92.125899 0.000009 0.000005 0.000006 0.000000 -0.000002 -0.000000 0.776476 6.054094 9.529743 5.506724 -10.523611 55.529308 -70.897056 86.710447 75.613862 -0.541005 5.793807 2.436019 1.190063 2.334147 7.237152 4.250721 -11.101292 -2.570814 -0.000006 -0.000001 0.000014 -0.000001 -0.000002 -0.000003 3.425635 2.972087 72.847021 -5.581844 2.947769 92.129635 -0.000010 -0.000000 0.000004 -0.000000 0.000002 -0.000000 -2.180804 2.047337 78.118868 -4.735115 4.314493 85.933144 0.000005 0.000011 0.000005 -0.000001 -0.000000 0.000000 -3.529977 -3.130926 85.505431 -4.835733 5.681257 88.623419 0.000013 0.000000 -0.000005 0.000001 -0.000002 -0.000001 -4.108856 -7.839736 98.143405 -5.436748 9.326571 98.221556 0.000010 -0.000006 0.000004 0.000001 -0.000002 -0.000001 -44.276042 3.631194 0.353114 99.305104 12.311214 3.679200 -9.327951 -0.629148 5.273279 -0.898540 -2.887874 -6.627548 -0.000005 -0.000002 -0.000001 -25.014443 -6.484139 4.609168 50.281701 0.387228 -1.580381 -19.626957 -0.066024 0.108388 -10.243078 12.978155 -1.678553 -0.000000 0.000001 -0.000000 
0.006345 3.216084 0.305918 5.397245 2.587677 -3.820676 4.678304 1.883078 2.336284 9.453707 3.921787 1.146489 9.453711 3.921790 1.146487 -7.493709 -4.398626 1.261414 -12.917695 -8.397502 -6.616993 -0.000001 -0.000000 -0.000000 1.116154 -0.827658 -8.882122 22.942477 17.367716 -68.727665 -1.095256 -100.766163 -13.474029 13.234264 -20.184602 2.901168 -3.691976 -7.086338 -6.633074 5.370487 13.667901 2.734584 -0.000007 -0.000006 0.000018 0.000001 0.000002 0.000001 -4.434475 -5.475987 -77.686770 -6.070968 -4.165716 -85.696649 -0.000011 0.000002 -0.000001 0.000001 0.000001 -0.000002 -4.767651 -3.742380 -81.172564 -5.088970 -5.363600 -79.472516 -0.000004 -0.000006 -0.000002 -0.000000 -0.000000 -0.000000 -3.626446 4.576292 -85.238705 -3.044682 -4.299646 -82.198335 -0.000005 0.000001 -0.000003 0.000000 -0.000001 0.000001 -3.250598 10.937162 -90.903910 -1.683682 -6.213829 -91.721559 0.000007 0.000004 0.000005 -0.000002 0.000000 0.000001 0.765712 7.100516 9.777244 1.538842 -7.786739 55.118858 -86.133405 86.270740 89.880413 -1.054615 4.223146 3.128688 1.202591 2.299137 7.233428 4.319155 -11.256304 -2.582425 -0.000005 -0.000004 0.000013 -0.000003 -0.000002 -0.000003 3.414429 3.005506 73.056926 -5.603083 2.947099 92.342115 -0.000010 -0.000005 0.000005 -0.000001 -0.000001 -0.000001 -2.195902 2.059873 78.330754 -4.753736 4.314332 86.146212 0.000006 0.000009 0.000005 -0.000001 0.000000 0.000000 -3.550452 -3.128266 85.715575 -4.854299 5.682862 88.836862 0.000016 0.000007 -0.000005 -0.000001 -0.000002 0.000000 -4.132007 -7.842464 98.351207 -5.453034 9.324267 98.436017 0.000012 -0.000009 0.000001 -0.000000 -0.000002 -0.000001 -49.239684 2.765877 0.614764 94.522325 10.990641 2.990401 -9.462519 0.002994 -1.160655 0.810006 -0.361818 -1.972815 -0.000000 0.000000 0.000001 -14.963225 -7.016546 4.532207 42.324964 1.691092 -2.018450 -20.647269 0.337864 -0.075096 -12.054480 13.773193 -1.826464 0.000000 0.000001 0.000000 
0.015288 3.269935 0.617131 5.418515 2.414122 -3.065622 4.464646 2.550174 2.082006 9.061621 5.074899 0.771867 9.061619 5.074903 0.771866 -7.646029 -4.380033 -1.097951 -11.775116 -11.653863 -4.908279 0.000000 -0.000000 -0.000000 1.148261 -0.358148 -8.568921 23.855969 18.056764 -67.164399 -14.070054 -97.633278 -27.270770 14.144732 -20.169905 3.022577 -3.691977 -7.086343 -6.633075 5.370490 13.667894 2.734582 -0.000004 -0.000009 0.000021 0.000001 -0.000003 -0.000004 -4.328194 -5.451844 -76.586829 -5.938532 -4.154481 -84.599871 -0.000006 0.000007 -0.000002 -0.000001 0.000001 -0.000000 -4.661662 -3.724928 -80.075717 -4.971523 -5.340692 -78.372842 -0.000002 -0.000002 -0.000006 0.000002 0.000003 -0.000000 -3.550223 4.583320 -84.152213 -2.978647 -4.289973 -81.100191 -0.000005 -0.000003 -0.000004 -0.000002 0.000001 -0.000000 -3.190898 10.936745 -89.821625 -1.660171 -6.214310 -90.624015 0.000005 -0.000005 0.000004 -0.000000 -0.000000 0.000000 0.979934 7.617223 8.325382 -0.518883 -6.993027 54.863334 -115.324971 85.374148 118.291595 -0.961734 7.069551 2.095946 1.236764 2.203144 7.223149 4.506500 -11.681300 -2.613444 -0.000003 -0.000004 0.000015 -0.000001 -0.000001 -0.000008 3.382974 3.097045 73.632622 -5.661119 2.944518 92.924594 -0.000009 0.000002 0.000007 -0.000001 -0.000000 0.000001 -2.237355 2.094064 78.911914 -4.805588 4.317687 86.730159 0.000006 0.000011 0.000006 -0.000000 0.000001 -0.000001 -3.606511 -3.121453 86.291913 -4.905199 5.686815 89.421998 0.000013 0.000006 -0.000004 0.000000 0.000001 0.000001 -4.195266 -7.850623 98.921281 -5.497565 9.317582 99.023830 0.000009 -0.000003 0.000007 0.000000 -0.000001 -0.000001 -52.339661 1.944118 0.279236 87.073430 9.280716 2.044026 -11.653452 0.902583 -8.846009 0.608857 1.953128 6.293156 -0.000000 -0.000002 0.000002 -5.264685 -8.089678 3.895628 33.191581 4.825272 -2.541131 -13.978832 0.078162 0.277628 -17.109156 14.136431 -2.190092 0.000000 0.000002 0.000001 
0.019806 3.338477 0.915718 5.432650 2.793982 -2.355305 4.203054 3.133641 1.606360 8.554273 6.131197 0.306683 8.554264 6.131204 0.306681 -6.145850 -5.297615 -1.175463 -13.243146 -14.049248 -5.080372 -0.000000 0.000000 0.000000 1.177076 0.134095 -8.229727 24.654471 18.471920 -65.302414 -41.847049 -95.374726 -55.790378 14.765815 -20.194279 3.174705 -3.691981 -7.086341 -6.633073 5.370487 13.667898 2.734577 -0.000010 -0.000004 0.000021 -0.000001 -0.000001 -0.000004 -4.172462 -5.412546 -74.966012 -5.743829 -4.133330 -82.983629 -0.000007 0.000000 -0.000000 0.000001 -0.000001 0.000001 -4.506112 -3.695514 -78.459401 -4.799305 -5.302845 -76.752393 -0.000000 -0.000007 -0.000001 0.000002 0.000001 -0.000002 -3.438180 4.596328 -82.551094 -2.881691 -4.273377 -79.481907 -0.000009 -0.000001 -0.000005 -0.000001 -0.000003 0.000001 -3.102983 10.938211 -88.226619 -1.625474 -6.214159 -89.006606 0.000011 -0.000006 0.000006 -0.000001 -0.000003 -0.000001 1.021729 8.200314 8.167479 -1.437522 -7.000744 54.866800 -128.106673 83.074723 130.459523 -2.187479 9.659817 1.944581 1.287888 2.059767 7.208000 4.786275 -12.316761 -2.656959 -0.000002 -0.000003 0.000017 0.000000 0.000000 -0.000003 3.334242 3.233158 74.493042 -5.747871 2.939494 93.794623 -0.000010 -0.000002 0.000006 0.000001 -0.000001 0.000001 -2.299432 2.144481 79.780346 -4.883220 4.321638 87.602490 0.000005 0.000011 0.000007 -0.000000 -0.000002 0.000000 -3.689091 -3.116737 87.153282 -4.980200 5.687064 90.296160 0.000012 0.000000 0.000001 -0.000001 -0.000001 -0.000003 -4.289529 -7.864626 99.773074 -5.564037 9.306701 99.901960 0.000011 -0.000004 0.000005 -0.000001 -0.000002 -0.000000 -52.266397 1.523579 -0.328020 75.381957 11.410330 0.674378 -9.563849 0.154828 -2.230403 -1.848663 -1.431662 2.158001 -0.000001 0.000002 -0.000001 4.105349 -9.264372 3.117085 22.468233 8.283080 -2.076276 -1.792767 -0.395313 1.668586 -24.461674 13.206028 -4.883238 -0.000000 0.000001 0.000000 
